<svg width="148" height="40" viewBox="0 0 148 40" fill="none" xmlns="http://www.w3.org/2000/svg">
<g clip-path="url(#clip0_2301_3663)">
<path fill-rule="evenodd" clip-rule="evenodd" d="M0 39.9998H39.9998V0H0V39.9998Z" fill="#CC0000"/>
<path fill-rule="evenodd" clip-rule="evenodd" d="M8.12557 19.9999C8.12557 18.3172 9.4899 16.9532 11.1724 16.9532H13.4842V15.2271H11.1536C8.52173 15.2271 6.3804 17.3681 6.3804 20.0001C6.3804 22.6317 8.52173 24.7731 11.1536 24.7731L15.6412 24.7729C15.8922 24.7729 16.0941 24.5261 16.0941 24.3216V15.4811C16.0941 14.9937 16.3997 14.5829 16.8544 14.4589C17.2424 14.3532 17.7864 14.4604 18.1499 15.0784C18.1669 15.1069 19.2694 17.0074 20.9497 19.9039C22.2684 22.1781 23.6327 24.5298 23.6574 24.5716C23.7984 24.8113 23.9921 24.9246 24.1761 24.8746C24.2919 24.8431 24.4277 24.7309 24.4277 24.5184V15.4811C24.4279 14.9931 24.7324 14.5821 25.1854 14.4586C25.5709 14.3537 26.1122 14.4612 26.4756 15.0784C26.4917 15.1054 27.4664 16.7862 29.0702 19.5509C30.4886 21.9959 31.9551 24.5244 31.9827 24.5714C32.1239 24.8113 32.3179 24.9246 32.5016 24.8746C32.6174 24.8431 32.7532 24.7309 32.7532 24.5186V12.8104H31.0231V19.7811C31.0231 19.7811 28.1327 14.8016 27.9999 14.5761C26.1649 11.4592 22.6976 12.7474 22.6976 15.4306V19.7811C22.6976 19.7811 19.8072 14.8016 19.6744 14.5761C17.8394 11.4592 14.3722 12.7474 14.3721 15.4306V22.5611C14.3729 22.8204 14.1779 23.0464 13.8941 23.0468H11.1724C9.4899 23.0468 8.12557 21.6826 8.12557 19.9999Z" fill="white"/>
<path fill-rule="evenodd" clip-rule="evenodd" d="M33.4436 12.8104V24.5185C33.4436 25.0059 33.1379 25.4169 32.6833 25.5409C32.5996 25.5635 32.5088 25.5765 32.4139 25.5765C32.0689 25.5765 31.6731 25.406 31.3876 24.9214C31.3723 24.8954 30.2236 22.915 28.4733 19.8972C27.2103 17.7204 25.9046 15.4695 25.8804 15.4284C25.7394 15.189 25.5478 15.0754 25.3668 15.1247C25.2523 15.156 25.1181 15.2682 25.1181 15.4812V24.5185C25.1181 25.006 24.8124 25.4169 24.3576 25.5409C23.9696 25.6464 23.4258 25.5394 23.0621 24.9214C23.0474 24.8964 21.9794 23.0557 20.3524 20.2502C18.9894 17.901 17.5803 15.4715 17.5549 15.4284C17.4136 15.1885 17.2196 15.075 17.0361 15.125C16.9201 15.1567 16.7848 15.2689 16.7848 15.481L16.7844 24.3215C16.7844 24.9299 16.2503 25.4634 15.6413 25.4634H11.1536C8.14093 25.4634 5.6901 23.0125 5.6901 20C5.6901 16.9874 8.14093 14.5364 11.1536 14.5364H13.4843V12.8104H11.1554C7.18478 12.8104 3.96577 16.0292 3.96577 20C3.96577 23.9705 7.18478 27.1894 11.1554 27.1894H15.6868C17.4091 27.1905 18.5168 26.1812 18.5149 24.3195V20.2189C18.5149 20.2189 21.4049 25.1982 21.5379 25.4237C23.3729 28.5405 26.8404 27.2524 26.8404 24.5692V20.2189C26.8404 20.2189 29.7308 25.1982 29.8633 25.4237C31.6981 28.5405 35.1656 27.2524 35.1659 24.5692V12.8104H33.4436Z" fill="white"/>
</g>
<g clip-path="url(#clip1_2301_3663)">
<mask id="mask0_2301_3663" style="mask-type:luminance" maskUnits="userSpaceOnUse" x="40" y="0" width="108" height="40">
<path d="M148 0H40V40H148V0Z" fill="white"/>
</mask>
<g mask="url(#mask0_2301_3663)">
<path d="M145.98 33.4319L141.024 27.7101L136.064 33.4339L145.98 33.4319Z" fill="#00C59E"/>
<mask id="mask1_2301_3663" style="mask-type:alpha" maskUnits="userSpaceOnUse" x="44" y="6" width="92" height="28">
<path d="M130.501 6C132.156 6 133.44 6.39498 134.354 7.18493C135.268 7.97488 135.725 9.04619 135.725 10.3988V16.1449H131.742V11.3971C131.742 10.8209 131.648 10.4198 131.46 10.1939C131.273 9.96802 130.966 9.85508 130.54 9.85508C130.095 9.85643 129.779 9.97681 129.591 10.2162C129.403 10.4557 129.309 10.8506 129.309 11.4012V14.0064C129.333 14.4443 129.462 14.87 129.684 15.2481C129.934 15.7243 130.573 16.6136 131.6 17.9162C133.175 19.8952 134.257 21.3486 134.845 22.2765C135.433 23.2044 135.727 23.9815 135.727 24.6078V29.4064L133.845 31.5794L132.02 33.6835C131.516 33.7786 131.008 33.8234 130.499 33.8215C128.872 33.8215 127.601 33.4265 126.687 32.6365C125.773 31.8466 125.316 30.7753 125.316 29.4226V23.1449H129.291V28.4203C129.291 28.9465 129.378 29.3347 129.554 29.5849C129.73 29.8365 130.056 29.9616 130.532 29.9603C131.008 29.9589 131.327 29.8271 131.491 29.5646C131.674 29.2116 131.758 28.8154 131.734 28.4183V26.1133C131.707 25.3418 131.481 24.5904 131.077 23.9322C130.638 23.1558 129.792 22.0155 128.54 20.5113C127.631 19.4506 126.817 18.3121 126.107 17.1087C125.581 16.1686 125.318 15.2853 125.318 14.4588V10.3623C125.313 9.03401 125.77 7.97488 126.689 7.18493C127.608 6.39498 128.879 6 130.501 6ZM75.3544 6C77.0078 6 78.2921 6.39498 79.2073 7.18493C80.1225 7.97489 80.5795 9.04619 80.5781 10.3988H80.5761V16.1449H76.5934V11.4012C76.5934 10.8249 76.4995 10.4239 76.3116 10.198C76.1237 9.97208 75.8161 9.85778 75.3889 9.85508C74.9387 9.85508 74.6197 9.97411 74.4318 10.2122C74.2439 10.4502 74.1499 10.8445 74.1499 11.3951V14.0064C74.1742 14.4443 74.3029 14.87 74.525 15.2481C74.7751 15.7243 75.4139 16.6136 76.4413 17.9162C78.019 19.8965 79.1005 21.35 79.6859 22.2765C80.2712 23.2031 80.5653 23.9802 80.568 24.6078V29.4206C80.568 30.7732 80.111 31.8445 79.1972 32.6345C78.2833 33.4245 76.999 33.8194 75.3443 33.8194C73.722 33.8194 72.4506 33.4245 71.5299 32.6345C70.6093 31.8445 70.1524 30.7732 70.159 29.4206V23.1429H74.1519V28.4183C74.1519 28.9445 74.2398 29.3327 74.4155 29.5829C74.5913 29.8331 74.9171 29.9583 75.393 29.9583C75.8688 29.9583 76.1885 29.8264 76.3521 29.5626C76.5355 29.2096 76.6196 28.8134 76.5955 28.4162V26.1113C76.5679 25.3398 76.3415 24.5885 75.9384 23.9302C75.4991 23.1537 74.6535 22.0134 73.4016 20.5093C72.4925 19.4485 71.6783 18.31 70.9682 17.1067C70.4423 16.1666 70.1794 15.2833 70.1794 14.4568V10.3603C70.1794 9.03199 70.6363 7.97286 71.5502 7.18291C72.4641 6.39295 73.7322 5.99865 75.3544 6ZM118.342 6C119.996 6 121.28 6.39498 122.195 7.18493C123.11 7.97489 123.568 9.04619 123.566 10.3988H123.564V16.1449H119.581V11.4012C119.581 10.8249 119.487 10.4239 119.3 10.198C119.112 9.97208 118.805 9.85778 118.379 9.85508C117.927 9.85508 117.608 9.97411 117.42 10.2122C117.232 10.4502 117.138 10.8445 117.138 11.3951V14.0064C117.162 14.4443 117.291 14.87 117.513 15.2481C117.763 15.7243 118.402 16.6136 119.429 17.9162C121.007 19.8965 122.088 21.35 122.674 22.2765C123.259 23.2031 123.553 23.9802 123.556 24.6078V29.4206C123.556 30.7732 123.099 31.8445 122.185 32.6345C121.271 33.4245 119.987 33.8194 118.332 33.8194C116.71 33.8194 115.439 33.4245 114.52 32.6345C113.601 31.8445 113.144 30.7732 113.149 29.4206V23.1429H117.132V28.4183C117.132 28.9445 117.22 29.3327 117.395 29.5829C117.571 29.8331 117.897 29.9583 118.373 29.9583C118.849 29.9583 119.168 29.8264 119.332 29.5626C119.515 29.2095 119.599 28.8133 119.575 28.4162V26.1113C119.548 25.3398 119.321 24.5885 118.918 23.9302C118.488 23.1537 117.645 22.0141 116.388 20.5113C115.478 19.4506 114.664 18.3121 113.954 17.1087C113.428 16.1686 113.165 15.2853 113.165 14.4588V10.3603C113.165 9.03199 113.622 7.97286 114.536 7.18291C115.45 6.39295 116.719 5.99865 118.342 6ZM61.1433 6.4058V27.7528C61.1433 28.9133 61.5489 29.6742 62.4472 29.6742C63.4246 29.6742 63.7876 28.9499 63.7876 27.7528V6.4058H67.9528V27.5072C67.9528 31.3136 66.4319 33.7038 62.8102 33.7038H62.0862C58.4625 33.6936 56.9781 31.3765 56.9781 27.4991V6.4058H61.1433ZM50.4465 6.4058C53.8512 6.4058 54.7577 8.18116 54.7577 10.7904V14.9235C54.7577 17.1716 53.7802 18.2571 52.7298 18.6568C53.8167 19.02 55.0841 19.9249 55.0841 22.6073V28.4426C55.0841 31.3055 53.8167 33.371 50.7385 33.371H44V6.4058H50.4465ZM86.8238 6.4058V33.369H82.7316V6.4058H86.8238ZM92.9154 6.4058L96.4276 20.8664V6.4058H100.159V33.369H96.8271L92.9154 17.8574V33.369H89.2207V6.4058H92.9154ZM111.711 6.4058V10.3197H106.496V17.3867H110.588V21.4832H106.496V29.2745H111.928V33.369H102.402V6.4058H111.711ZM48.0922 21.0754V29.5565H49.3332C50.6371 29.5565 50.9271 28.9478 50.9271 27.7446V22.8223C50.9271 21.6983 50.6371 21.0835 49.3332 21.0835L48.0922 21.0754ZM48.0922 10.058V17.0559H49.3332C50.4201 17.0559 50.7527 16.2951 50.7527 15.171V11.7704C50.7527 10.6829 50.4627 10.0681 49.3332 10.0681L48.0922 10.058Z" fill="white"/>
</mask>
<g mask="url(#mask1_2301_3663)">
<path d="M130.501 6C132.156 6 133.44 6.39498 134.354 7.18493C135.268 7.97488 135.725 9.04619 135.725 10.3988V16.1449H131.742V11.3971C131.742 10.8209 131.648 10.4198 131.46 10.1939C131.273 9.96802 130.966 9.85508 130.54 9.85508C130.095 9.85643 129.779 9.97681 129.591 10.2162C129.403 10.4557 129.309 10.8506 129.309 11.4012V14.0064C129.333 14.4443 129.462 14.87 129.684 15.2481C129.934 15.7243 130.573 16.6136 131.6 17.9162C133.175 19.8952 134.257 21.3486 134.845 22.2765C135.433 23.2044 135.727 23.9815 135.727 24.6078V29.4064L133.845 31.5794L132.02 33.6835C131.516 33.7786 131.008 33.8234 130.499 33.8215C128.872 33.8215 127.601 33.4265 126.687 32.6365C125.773 31.8466 125.316 30.7753 125.316 29.4226V23.1449H129.291V28.4203C129.291 28.9465 129.378 29.3347 129.554 29.5849C129.73 29.8365 130.056 29.9616 130.532 29.9603C131.008 29.9589 131.327 29.8271 131.491 29.5646C131.674 29.2116 131.758 28.8154 131.734 28.4183V26.1133C131.707 25.3418 131.481 24.5904 131.077 23.9322C130.638 23.1558 129.792 22.0155 128.54 20.5113C127.631 19.4506 126.817 18.3121 126.107 17.1087C125.581 16.1686 125.318 15.2853 125.318 14.4588V10.3623C125.313 9.03401 125.77 7.97488 126.689 7.18493C127.608 6.39498 128.879 6 130.501 6ZM75.3544 6C77.0078 6 78.2921 6.39498 79.2073 7.18493C80.1225 7.97489 80.5795 9.04619 80.5781 10.3988H80.5761V16.1449H76.5934V11.4012C76.5934 10.8249 76.4995 10.4239 76.3116 10.198C76.1237 9.97208 75.8161 9.85778 75.3889 9.85508C74.9387 9.85508 74.6197 9.97411 74.4318 10.2122C74.2439 10.4502 74.1499 10.8445 74.1499 11.3951V14.0064C74.1742 14.4443 74.3029 14.87 74.525 15.2481C74.7751 15.7243 75.4139 16.6136 76.4413 17.9162C78.019 19.8965 79.1005 21.35 79.6859 22.2765C80.2712 23.2031 80.5653 23.9802 80.568 24.6078V29.4206C80.568 30.7732 80.111 31.8445 79.1972 32.6345C78.2833 33.4245 76.999 33.8194 75.3443 33.8194C73.722 33.8194 72.4506 33.4245 71.5299 32.6345C70.6093 31.8445 70.1524 30.7732 70.159 29.4206V23.1429H74.1519V28.4183C74.1519 28.9445 74.2398 29.3327 74.4155 29.5829C74.5913 29.8331 74.9171 29.9583 75.393 29.9583C75.8688 29.9583 76.1885 29.8264 76.3521 29.5626C76.5355 29.2096 76.6196 28.8134 76.5955 28.4162V26.1113C76.5679 25.3398 76.3415 24.5885 75.9384 23.9302C75.4991 23.1537 74.6535 22.0134 73.4016 20.5093C72.4925 19.4485 71.6783 18.31 70.9682 17.1067C70.4423 16.1666 70.1794 15.2833 70.1794 14.4568V10.3603C70.1794 9.03199 70.6363 7.97286 71.5502 7.18291C72.4641 6.39295 73.7322 5.99865 75.3544 6ZM118.342 6C119.996 6 121.28 6.39498 122.195 7.18493C123.11 7.97489 123.568 9.04619 123.566 10.3988H123.564V16.1449H119.581V11.4012C119.581 10.8249 119.487 10.4239 119.3 10.198C119.112 9.97208 118.805 9.85778 118.379 9.85508C117.927 9.85508 117.608 9.97411 117.42 10.2122C117.232 10.4502 117.138 10.8445 117.138 11.3951V14.0064C117.162 14.4443 117.291 14.87 117.513 15.2481C117.763 15.7243 118.402 16.6136 119.429 17.9162C121.007 19.8965 122.088 21.35 122.674 22.2765C123.259 23.2031 123.553 23.9802 123.556 24.6078V29.4206C123.556 30.7732 123.099 31.8445 122.185 32.6345C121.271 33.4245 119.987 33.8194 118.332 33.8194C116.71 33.8194 115.439 33.4245 114.52 32.6345C113.601 31.8445 113.144 30.7732 113.149 29.4206V23.1429H117.132V28.4183C117.132 28.9445 117.22 29.3327 117.395 29.5829C117.571 29.8331 117.897 29.9583 118.373 29.9583C118.849 29.9583 119.168 29.8264 119.332 29.5626C119.515 29.2095 119.599 28.8133 119.575 28.4162V26.1113C119.548 25.3398 119.321 24.5885 118.918 23.9302C118.488 23.1537 117.645 22.0141 116.388 20.5113C115.478 19.4506 114.664 18.3121 113.954 17.1087C113.428 16.1686 113.165 15.2853 113.165 14.4588V10.3603C113.165 9.03199 113.622 7.97286 114.536 7.18291C115.45 6.39295 116.719 5.99865 118.342 6ZM61.1433 6.4058V27.7528C61.1433 28.9133 61.5489 29.6742 62.4472 29.6742C63.4246 29.6742 63.7876 28.9499 63.7876 27.7528V6.4058H67.9528V27.5072C67.9528 31.3136 66.4319 33.7038 62.8102 33.7038H62.0862C58.4625 33.6936 56.9781 31.3765 56.9781 27.4991V6.4058H61.1433ZM50.4465 6.4058C53.8512 6.4058 54.7577 8.18116 54.7577 10.7904V14.9235C54.7577 17.1716 53.7802 18.2571 52.7298 18.6568C53.8167 19.02 55.0841 19.9249 55.0841 22.6073V28.4426C55.0841 31.3055 53.8167 33.371 50.7385 33.371H44V6.4058H50.4465ZM86.8238 6.4058V33.369H82.7316V6.4058H86.8238ZM92.9154 6.4058L96.4276 20.8664V6.4058H100.159V33.369H96.8271L92.9154 17.8574V33.369H89.2207V6.4058H92.9154ZM111.711 6.4058V10.3197H106.496V17.3867H110.588V21.4832H106.496V29.2745H111.928V33.369H102.402V6.4058H111.711ZM48.0922 21.0754V29.5565H49.3332C50.6371 29.5565 50.9271 28.9478 50.9271 27.7446V22.8223C50.9271 21.6983 50.6371 21.0835 49.3332 21.0835L48.0922 21.0754ZM48.0922 10.058V17.0559H49.3332C50.4201 17.0559 50.7527 16.2951 50.7527 15.171V11.7704C50.7527 10.6829 50.4627 10.0681 49.3332 10.0681L48.0922 10.058Z" fill="white"/>
</g>
</g>
</g>
<defs>
<clipPath id="clip0_2301_3663">
<rect width="40" height="40" fill="white"/>
</clipPath>
<clipPath id="clip1_2301_3663">
<rect width="108" height="40" fill="white" transform="translate(40)"/>
</clipPath>
</defs>
</svg>
